<?xml version="1.0" standalone="no"?><!DOCTYPE svg PUBLIC "-//W3C//DTD SVG 1.1//EN" "http://www.w3.org/Graphics/SVG/1.1/DTD/svg11.dtd"><svg t="1532914857125" class="icon" style="" viewBox="0 0 1025 1024" version="1.1" xmlns="http://www.w3.org/2000/svg" p-id="24677" xmlns:xlink="http://www.w3.org/1999/xlink" width="200.1953125" height="200"><defs><style type="text/css"></style></defs><path d="M616.96 985.6H411.648c-24.064 0-43.008-19.456-43.008-43.008V737.28c0-24.064 19.456-43.008 43.008-43.008h205.312c24.064 0 43.008 19.456 43.008 43.008v205.312c0.512 23.552-18.944 43.008-43.008 43.008z m-10.752-237.568H422.4V931.84h183.808v-183.808zM252.416 985.6H47.104c-24.064 0-43.008-19.456-43.008-43.008V737.28c0-24.064 19.456-43.008 43.008-43.008h205.312c24.064 0 43.008 19.456 43.008 43.008v205.312c0.512 23.552-18.944 43.008-43.008 43.008z m-10.24-237.568H58.368V931.84h183.808v-183.808zM621.056 325.12H415.744c-24.064 0-43.008-19.456-43.008-43.008V76.288c0-24.064 19.456-43.008 43.008-43.008h205.312c24.064 0 43.008 19.456 43.008 43.008V281.6c0.512 24.064-18.944 43.52-43.008 43.52zM609.28 88.576H428.032v181.248H609.28V88.576zM878.08 542.72h-727.04c-18.432 0-33.28-14.848-33.28-33.28s14.848-33.28 33.28-33.28h727.04c18.432 0 33.28 14.848 33.28 33.28s-14.848 33.28-33.28 33.28z" p-id="24678"></path><path d="M485.376 322.048h66.56v373.76h-66.56zM982.016 985.6h-205.312c-24.064 0-43.008-19.456-43.008-43.008V737.28c0-24.064 19.456-43.008 43.008-43.008h205.312c24.064 0 43.008 19.456 43.008 43.008v205.312c0.512 23.552-18.944 43.008-43.008 43.008z m-10.24-237.568h-183.808V931.84h183.808v-183.808z" p-id="24679"></path><path d="M912.896 517.12v179.2h-66.56V476.16h25.6c22.528 0 40.96 18.432 40.96 40.96zM183.296 476.16v220.16h-66.56v-179.2c0-22.528 18.432-40.96 40.96-40.96h25.6z" p-id="24680"></path></svg>