<?xml version="1.0" standalone="no"?><!DOCTYPE svg PUBLIC "-//W3C//DTD SVG 1.1//EN" "http://www.w3.org/Graphics/SVG/1.1/DTD/svg11.dtd"><svg t="1532915040680" class="icon" style="" viewBox="0 0 1024 1024" version="1.1" xmlns="http://www.w3.org/2000/svg" p-id="27208" xmlns:xlink="http://www.w3.org/1999/xlink" width="200" height="200"><defs><style type="text/css"></style></defs><path d="M958.79 332.89V171.52a55.86 55.86 0 0 0-55.65-55.65h-418.8a55.86 55.86 0 0 0-55.66 55.65v60.42H204.52l-85.61 145.61-54.82 93.28 0.52 217.33c0 62 50.67 112.75 112.65 112.75h43.84c0 1.25-0.11 2.49-0.11 3.73a105.61 105.61 0 1 0 211.22 0c0-1.24 0-2.48-0.11-3.73h168.52c0 1.25-0.11 2.49-0.11 3.73a105.61 105.61 0 0 0 211.22 0c0-1.24 0-2.48-0.11-3.73h35c62 0 112.66-50.68 112.66-112.65V344.6a89.13 89.13 0 0 0-0.49-11.71zM326.7 870.56a66 66 0 0 1-65.91-65.92c0-1.24 0-2.48 0.1-3.73a66 66 0 0 1 36.69-55.44 65.31 65.31 0 0 1 29.12-6.74 66.83 66.83 0 0 1 29.13 6.74 66 66 0 0 1 36.68 55.44c0.11 1.25 0.11 2.49 0.11 3.73a66 66 0 0 1-65.92 65.92z m379.52 0a66 66 0 0 1-65.91-65.92c0-1.24 0-2.48 0.1-3.73a66 66 0 0 1 36.69-55.44 65.31 65.31 0 0 1 29.12-6.74 66.83 66.83 0 0 1 29.13 6.74A66 66 0 0 1 772 800.91c0.11 1.25 0.11 2.49 0.11 3.73a65.89 65.89 0 0 1-65.89 65.92z m200.34-198.68A73.81 73.81 0 0 1 833 745.47h-39.31a105.61 105.61 0 0 0-174.94 0H414.17a105.61 105.61 0 0 0-174.94 0h-46.74a73.8 73.8 0 0 1-73.58-73.59V493.11l117.42-199.5h192.35v218.47a55.86 55.86 0 0 0 55.66 55.65h418.9c1.14 0 2.28 0 3.42-0.11v104.26z m0-422.63v234.84A32.07 32.07 0 0 1 874.64 516H518.12a32.07 32.07 0 0 1-31.92-31.92V200.54a32.07 32.07 0 0 1 31.92-31.92h356.52a32.07 32.07 0 0 1 31.92 31.92z" fill="#fff" p-id="27209"></path><path d="M220.62 537.48a38.54 38.54 0 0 1-12.23-53l72.44-115.87a38.55 38.55 0 0 1 53-12.23 38.55 38.55 0 0 1 12.23 53l-72.48 115.87a38.55 38.55 0 0 1-52.96 12.23z" fill="#fff" p-id="27210"></path></svg>