<?xml version="1.0" standalone="no"?><!DOCTYPE svg PUBLIC "-//W3C//DTD SVG 1.1//EN" "http://www.w3.org/Graphics/SVG/1.1/DTD/svg11.dtd"><svg t="1532914788008" class="icon" style="" viewBox="0 0 1029 1024" version="1.1" xmlns="http://www.w3.org/2000/svg" p-id="24191" xmlns:xlink="http://www.w3.org/1999/xlink" width="200.9765625" height="200"><defs><style type="text/css"></style></defs><path d="M1019.82652 573.824067 536.417695 88.967264c-5.740748-5.759167-13.547551-8.991792-21.656229-8.991792-8.107655 0-15.896038 3.231601-21.632693 8.991792L9.694366 573.824067c-11.95938 11.961426-11.95938 31.406291 0 43.408649 11.962449 11.981892 27.496238 11.981892 39.458687 0l92.518137-96.634898 0 384.02942c0 16.937764 21.373797 38.371936 38.272675 38.371936l213.959 0 244.907872 0 214.621079 0c16.898879 0 22.959921-21.434172 22.959921-38.371936L876.391737 524.43317l96.331999 92.800569c6.002714 5.980201 15.71389 8.990768 23.542182 8.990768 7.868201 0 16.637935-3.010567 22.63758-8.990768C1030.828085 605.231381 1031.789993 585.786517 1019.82652 573.824067L1019.82652 573.824067zM600.860403 881.5875 417.184104 881.5875 417.184104 674.351622c0-25.388227 27.938306-38.373982 53.264111-38.373982l91.835591 0c25.310456 0 38.575574 12.985756 38.575574 38.373982L600.85938 881.5875 600.860403 881.5875zM815.161187 881.5875 662.110396 881.5875 662.110396 674.351622c0-59.264778-40.74089-99.786681-99.82659-99.786681l-91.835591 0c-59.084677 0-114.477264 40.541345-114.477264 99.786681l0 207.235878L202.884343 881.5875 202.884343 459.44811c0-0.101307 3.813862-0.13917 3.813862-0.239454l302.323537-305.116139 306.139445 308.949444L815.161187 881.5875 815.161187 881.5875zM815.161187 881.5875" p-id="24192"></path></svg>