<?xml version="1.0" standalone="no"?><!DOCTYPE svg PUBLIC "-//W3C//DTD SVG 1.1//EN" "http://www.w3.org/Graphics/SVG/1.1/DTD/svg11.dtd"><svg t="1532916071899" class="icon" style="" viewBox="0 0 1036 1024" version="1.1" xmlns="http://www.w3.org/2000/svg" p-id="11320" xmlns:xlink="http://www.w3.org/1999/xlink" width="202.34375" height="200"><defs><style type="text/css"></style></defs><path d="M477.967797 477.967797h-477.967797v-477.967797h477.967797v477.967797z m-418.221822-59.745975h358.475847v-358.475847h-358.475847v358.475847zM477.967797 1015.681568h-477.967797v-477.967797h477.967797v477.967797z m-418.221822-59.745975h358.475847v-358.475847h-358.475847v358.475847zM1015.681568 477.967797h-477.967797v-477.967797h477.967797v477.967797z m-418.221822-59.745975h358.475847v-358.475847h-358.475847v358.475847z" p-id="11321"></path><path d="M848.392839 1009.70697c-5.974597 0-17.923792-5.974597-23.89839-11.949194-5.974597-5.974597-29.872987-29.872987-47.796779-29.872988-17.923792 0-41.822182 23.89839-47.79678 29.872988-5.974597 11.949195-23.89839 11.949195-35.847585 5.974597l-59.745974-35.847585c-11.949195-5.974597-11.949195-23.89839-11.949195-35.847584 0 0 5.974597-11.949195 5.974597-23.89839 0-35.847585-29.872987-65.720572-59.745974-65.720572-11.949195 0-17.923792-11.949195-17.923793-23.89839 0 0-5.974597-29.872987-5.974597-47.79678 0-23.89839 5.974597-47.79678 5.974597-47.79678 0-11.949195 11.949195-23.89839 17.923793-23.898389 35.847585 0 59.745975-29.872987 59.745974-65.720572 0-11.949195-5.974597-23.89839-5.974597-23.89839-5.974597-11.949195 0-29.872987 11.949195-35.847585l59.745974-35.847585c11.949195-5.974597 23.89839 0 35.847585 5.974598 5.974597 5.974597 29.872987 29.872987 47.79678 29.872987 17.923792 0 41.822182-17.923792 47.796779-29.872987 5.974597-11.949195 23.89839-11.949195 35.847585-5.974598l59.745975 35.847585c11.949195 5.974597 11.949195 23.89839 11.949195 35.847585 0 0-5.974597 11.949195-5.974598 23.89839 0 35.847585 29.872987 65.720572 59.745975 65.720572 11.949195 0 17.923792 11.949195 17.923792 23.898389 0 0 5.974597 29.872987 5.974597 47.79678 0 23.89839-5.974597 47.79678-5.974597 47.79678 0 11.949195-11.949195 23.89839-17.923792 23.89839-35.847585 0-59.745975 29.872987-59.745975 65.720572 0 11.949195 5.974597 23.89839 5.974598 23.89839 5.974597 11.949195 0 29.872987-11.949195 35.847584l-59.745975 35.847585c-5.974597 5.974597-5.974597 5.974597-11.949195 5.974597z m0-29.872987l59.745975-29.872987c0-5.974597-5.974597-17.923792-5.974598-35.847585 0-47.79678 35.847585-89.618962 83.644365-95.593559 0-5.974597 5.974597-23.89839 5.974597-41.822182s-5.974597-41.822182-5.974597-41.822183c-47.79678 0-83.644364-41.822182-83.644365-95.593559 0-17.923792 5.974597-35.847585 5.974598-35.847585l-53.771377-29.872987-17.923793 17.923792c-17.923792 11.949195-35.847585 17.923792-47.796779 17.923793-17.923792 0-29.872987-5.974597-47.79678-17.923793l-17.923793-17.923792-59.745974 35.847585c0 5.974597 5.974597 17.923792 5.974597 35.847585 0 47.79678-35.847585 89.618962-83.644364 95.593559 0 5.974597-5.974597 23.89839-5.974598 41.822182s5.974597 41.822182 5.974598 41.822182c47.79678 0 83.644364 41.822182 83.644364 95.59356 0 17.923792-5.974597 35.847585-5.974597 35.847584l53.771377 29.872988s11.949195-11.949195 23.89839-17.923793c17.923792-11.949195 35.847585-17.923792 47.79678-17.923792 17.923792 0 29.872987 5.974597 47.796779 17.923792 0 5.974597 5.974597 11.949195 11.949195 11.949195z m-71.695169-119.491949c-47.79678 0-83.644364-41.822182-83.644365-89.618962s35.847585-89.618962 83.644365-89.618962c47.79678 0 83.644364 41.822182 83.644364 89.618962 0 53.771377-41.822182 89.618962-83.644364 89.618962z m0-143.390339c-29.872987 0-53.771377 23.89839-53.771378 59.745975 0 29.872987 23.89839 59.745975 53.771378 59.745974s53.771377-23.89839 53.771377-59.745974-23.89839-59.745975-53.771377-59.745975z" p-id="11322"></path><path d="M848.392839 1021.656165c-11.949195 0-23.89839-5.974597-29.872987-11.949195-5.974597-11.949195-29.872987-29.872987-41.822182-29.872987-11.949195 0-35.847585 17.923792-41.822183 29.872987-11.949195 11.949195-29.872987 17.923792-41.822182 11.949195l-59.745974-35.847584c-17.923792-11.949195-17.923792-29.872987-11.949195-47.79678 0-5.974597 5.974597-17.923792 5.974597-23.89839 0-29.872987-23.89839-53.771377-53.771377-53.771377-11.949195 0-23.89839-11.949195-29.872987-29.872987 0-11.949195-5.974597-29.872987-5.974598-53.771377s5.974597-53.771377 5.974598-53.771378c5.974597-17.923792 11.949195-29.872987 29.872987-29.872987 29.872987 0 53.771377-23.89839 53.771377-53.771377 0-5.974597 0-17.923792-5.974597-17.923792-5.974597-17.923792 0-35.847585 11.949195-47.79678l65.720572-35.847585c17.923792-5.974597 35.847585-5.974597 47.796779 5.974598 11.949195 11.949195 29.872987 23.89839 41.822183 23.89839 11.949195 0 35.847585-17.923792 41.822182-23.89839 11.949195-11.949195 29.872987-17.923792 41.822182-11.949195l59.745975 35.847585c11.949195 11.949195 17.923792 29.872987 11.949194 47.796779 0 5.974597-5.974597 11.949195-5.974597 23.89839 0 29.872987 23.89839 53.771377 53.771377 53.771377 17.923792 0 29.872987 11.949195 29.872987 29.872987 0 11.949195 5.974597 29.872987 5.974598 53.771378s-5.974597 41.822182-5.974598 47.796779c-5.974597 17.923792-11.949195 29.872987-29.872987 29.872988-29.872987 0-53.771377 23.89839-53.771377 53.771377 0 5.974597 0 11.949195 5.974597 23.89839 5.974597 17.923792 0 35.847585-11.949194 47.796779l-59.745975 35.847585c-11.949195 5.974597-17.923792 5.974597-23.89839 5.974597z m0-17.923792h5.974598l59.745974-35.847585c5.974597-5.974597 11.949195-17.923792 5.974598-23.89839 0-5.974597-5.974597-17.923792-5.974598-23.898389 0-41.822182 29.872987-71.69517 71.69517-71.69517 5.974597 0 11.949195-5.974597 11.949195-17.923792 0-5.974597 5.974597-29.872987 5.974597-47.79678s-5.974597-35.847585-5.974597-47.79678c0-11.949195-5.974597-17.923792-11.949195-17.923792-41.822182 0-71.69517-35.847585-71.69517-71.695169 0-11.949195 5.974597-23.89839 5.974598-23.89839 5.974597-11.949195 0-17.923792-5.974598-23.89839l-59.745974-35.847585c-5.974597-5.974597-17.923792 0-23.89839 5.974598 0 0-29.872987 29.872987-53.771377 29.872987s-53.771377-29.872987-53.771378-29.872987c-5.974597-5.974597-17.923792-5.974597-23.898389-5.974598l-59.745975 35.847585c-5.974597 5.974597-11.949195 17.923792-5.974597 23.89839 0 5.974597 5.974597 17.923792 5.974597 29.872987 0 41.822182-29.872987 71.69517-71.695169 71.695169-5.974597 0-11.949195 5.974597-11.949195 17.923793 0 0-5.974597 23.89839-5.974598 47.79678 0 17.923792 5.974597 35.847585 5.974598 47.796779 0 11.949195 5.974597 17.923792 11.949195 17.923793 41.822182 0 71.69517 35.847585 71.695169 71.695169 0 11.949195-5.974597 17.923792-5.974597 23.89839-5.974597 5.974597 0 17.923792 5.974597 23.89839l59.745975 35.847584c5.974597 5.974597 17.923792 0 23.898389-5.974597 0 0 29.872987-35.847585 53.771378-35.847585 29.872987 0 53.771377 35.847585 59.745974 35.847585h11.949195z m0-11.949195l-11.949195-5.974597-17.923792-17.923793c-29.872987-23.89839-53.771377-23.89839-89.618962 0l-17.923792 17.923793-5.974598 5.974597h-11.949195l-59.745974-35.847585v-5.974597s5.974597-17.923792 5.974597-35.847585c0-47.79678-35.847585-83.644364-77.669767-83.644364h-5.974597v-5.974598c-5.974597-23.89839-5.974597-35.847585-5.974598-41.822182 0-11.949195 0-23.89839 5.974598-41.822182v-5.974598h5.974597c41.822182 0 77.669767-41.822182 77.669767-83.644364 0-17.923792-5.974597-29.872987-5.974597-35.847585v-5.974597l65.720572-35.847585h5.974597c5.974597 5.974597 11.949195 11.949195 23.89839 17.923792 29.872987 23.89839 53.771377 23.89839 83.644364 0 11.949195-5.974597 17.923792-11.949195 17.923793-17.923792 5.974597 0 5.974597-5.974597 5.974597-5.974597l59.745975 35.847584v5.974598c0 5.974597-5.974597 17.923792-5.974598 35.847585 0 47.79678 35.847585 83.644364 77.669767 83.644364h5.974598v5.974597c0 17.923792 5.974597 35.847585 5.974597 41.822183s0 23.89839-5.974597 41.822182v5.974597h-5.974598c-41.822182 0-77.669767 41.822182-77.669767 83.644365 0 11.949195 5.974597 29.872987 5.974598 35.847584v5.974598l-47.79678 41.822182z m-71.695169-59.745974c17.923792 0 35.847585 5.974597 53.771377 23.898389l17.923792 17.923793 47.79678-23.89839c0-5.974597-5.974597-17.923792-5.974598-29.872987 0-53.771377 35.847585-95.593559 89.618962-101.568157 0-17.923792 5.974597-29.872987 5.974598-35.847585 0-5.974597 0-17.923792-5.974598-35.847585-47.79678-5.974597-89.618962-47.79678-89.618962-101.568156 0-11.949195 5.974597-23.89839 5.974598-29.872988l-41.822182-23.89839-17.923793 17.923793c-35.847585 29.872987-71.69517 29.872987-107.542754 0l-17.923792-17.923793-47.79678 23.89839c0 5.974597 5.974597 17.923792 5.974597 29.872988 0 53.771377-35.847585 95.593559-89.618962 101.568156 0 17.923792-5.974597 29.872987-5.974597 35.847585 0 5.974597 0 17.923792 5.974597 35.847585 47.79678 5.974597 89.618962 47.79678 89.618962 101.568157 0 11.949195-5.974597 23.89839-5.974597 29.872987l41.822182 23.89839 17.923792-17.923793c17.923792-17.923792 35.847585-23.89839 53.771378-23.898389z m0-59.745975c-47.79678 0-89.618962-41.822182-89.618962-95.593559 0-53.771377 41.822182-95.593559 89.618962-95.59356s89.618962 41.822182 89.618961 95.59356c0 53.771377-41.822182 95.593559-89.618961 95.593559z m0-173.263326c-41.822182 0-71.69517 35.847585-71.69517 77.669767 0 41.822182 35.847585 77.669767 71.69517 77.669767s71.69517-35.847585 71.695169-77.669767-29.872987-77.669767-71.695169-77.669767z m0 143.390339c-35.847585 0-65.720572-29.872987-65.720572-65.720572 0-35.847585 23.89839-59.745975 53.771377-65.720572h11.949195c35.847585 0 65.720572 29.872987 65.720572 65.720572-5.974597 35.847585-29.872987 65.720572-65.720572 65.720572z m0-113.517352c-29.872987 0-47.79678 23.89839-47.79678 47.79678s17.923792 47.79678 47.79678 47.796779c23.89839 0 47.79678-23.89839 47.796779-47.796779-5.974597-29.872987-23.89839-47.79678-47.796779-47.79678z" p-id="11323"></path></svg>